<svg xmlns="http://www.w3.org/2000/svg" width="32" height="32" viewBox="0 0 32 32">
  <defs>
    <linearGradient id="grad1" x1="0%" y1="0%" x2="100%" y2="100%">
      <stop offset="0%" style="stop-color:#667eea;stop-opacity:1" />
      <stop offset="100%" style="stop-color:#764ba2;stop-opacity:1" />
    </linearGradient>
    <linearGradient id="grad2" x1="0%" y1="0%" x2="100%" y2="100%">
      <stop offset="0%" style="stop-color:#f093fb;stop-opacity:1" />
      <stop offset="100%" style="stop-color:#f5576c;stop-opacity:1" />
    </linearGradient>
    <linearGradient id="grad3" x1="0%" y1="0%" x2="100%" y2="100%">
      <stop offset="0%" style="stop-color:#4facfe;stop-opacity:1" />
      <stop offset="100%" style="stop-color:#00f2fe;stop-opacity:1" />
    </linearGradient>
  </defs>
  
  <!-- Background circle with gradient -->
  <circle cx="16" cy="16" r="15" fill="url(#grad1)" stroke="#ffffff" stroke-width="0.5"/>
  
  <!-- Lab flask/beaker -->
  <path d="M12 8 L12 12 L8 20 L24 20 L20 12 L20 8 Z" fill="url(#grad2)" stroke="#ffffff" stroke-width="0.6" stroke-linejoin="round"/>
  
  <!-- Flask neck -->
  <rect x="14" y="6" width="4" height="4" fill="#ffffff" rx="0.5"/>
  
  <!-- Liquid inside flask -->
  <path d="M10 18 L22 18 L20.5 15 L11.5 15 Z" fill="#ffffff" opacity="0.7"/>
  
  <!-- Bubbles for scientific effect -->
  <circle cx="13" cy="16" r="1" fill="#ffffff" opacity="0.6"/>
  <circle cx="18" cy="14" r="0.8" fill="#ffffff" opacity="0.5"/>
  <circle cx="15" cy="17" r="0.6" fill="#ffffff" opacity="0.7"/>
  
  <!-- Modern accent lines -->
  <line x1="6" y1="26" x2="26" y2="26" stroke="#ffffff" stroke-width="1" opacity="0.3"/>
  <line x1="8" y1="28" x2="24" y2="28" stroke="#ffffff" stroke-width="0.5" opacity="0.2"/>
  
  <!-- Lab Manager decorative elements -->
  <circle cx="16" cy="5" r="1.2" fill="url(#grad3)" opacity="0.8"/>
  <circle cx="16" cy="27" r="1" fill="url(#grad3)" opacity="0.6"/>
</svg>