<svg xmlns="http://www.w3.org/2000/svg" width="512" height="512" viewBox="0 0 512 512">
  <defs>
    <linearGradient id="grad1" x1="0%" y1="0%" x2="100%" y2="100%">
      <stop offset="0%" style="stop-color:#667eea;stop-opacity:1" />
      <stop offset="100%" style="stop-color:#764ba2;stop-opacity:1" />
    </linearGradient>
    <linearGradient id="grad2" x1="0%" y1="0%" x2="100%" y2="100%">
      <stop offset="0%" style="stop-color:#f093fb;stop-opacity:1" />
      <stop offset="100%" style="stop-color:#f5576c;stop-opacity:1" />
    </linearGradient>
    <linearGradient id="grad3" x1="0%" y1="0%" x2="100%" y2="100%">
      <stop offset="0%" style="stop-color:#4facfe;stop-opacity:1" />
      <stop offset="100%" style="stop-color:#00f2fe;stop-opacity:1" />
    </linearGradient>
    <linearGradient id="grad4" x1="0%" y1="0%" x2="100%" y2="100%">
      <stop offset="0%" style="stop-color:#a8edea;stop-opacity:1" />
      <stop offset="100%" style="stop-color:#fed6e3;stop-opacity:1" />
    </linearGradient>
  </defs>
  
  <!-- Background circle with gradient -->
  <circle cx="256" cy="256" r="240" fill="url(#grad1)" stroke="#ffffff" stroke-width="8"/>
  
  <!-- Lab flask/beaker -->
  <path d="M192 128 L192 192 L128 320 L384 320 L320 192 L320 128 Z" fill="url(#grad2)" stroke="#ffffff" stroke-width="10" stroke-linejoin="round"/>
  
  <!-- Flask neck -->
  <rect x="224" y="96" width="64" height="64" fill="#ffffff" rx="8"/>
  
  <!-- Liquid inside flask -->
  <path d="M160 288 L352 288 L328 240 L184 240 Z" fill="#ffffff" opacity="0.7"/>
  
  <!-- Bubbles for scientific effect -->
  <circle cx="208" cy="256" r="16" fill="#ffffff" opacity="0.6"/>
  <circle cx="288" cy="224" r="12.8" fill="#ffffff" opacity="0.5"/>
  <circle cx="240" cy="272" r="9.6" fill="#ffffff" opacity="0.7"/>
  <circle cx="304" cy="256" r="6.4" fill="#ffffff" opacity="0.8"/>
  <circle cx="264" cy="240" r="4.8" fill="#ffffff" opacity="0.9"/>
  
  <!-- Modern accent lines -->
  <line x1="96" y1="416" x2="416" y2="416" stroke="#ffffff" stroke-width="16" opacity="0.3"/>
  <line x1="128" y1="448" x2="384" y2="448" stroke="#ffffff" stroke-width="8" opacity="0.2"/>
  <line x1="160" y1="472" x2="352" y2="472" stroke="#ffffff" stroke-width="4" opacity="0.15"/>
  
  <!-- Lab Manager decorative elements -->
  <circle cx="256" cy="80" r="20" fill="url(#grad3)" opacity="0.8"/>
  <circle cx="256" cy="432" r="16" fill="url(#grad3)" opacity="0.6"/>
  
  <!-- Additional premium elements -->
  <circle cx="128" cy="128" r="12" fill="url(#grad4)" opacity="0.4"/>
  <circle cx="384" cy="128" r="12" fill="url(#grad4)" opacity="0.4"/>
  <circle cx="128" cy="384" r="10" fill="url(#grad4)" opacity="0.3"/>
  <circle cx="384" cy="384" r="10" fill="url(#grad4)" opacity="0.3"/>
</svg>